<?xml version="1.0" encoding="UTF-8"?>
<svg version="1.1" xmlns="http://www.w3.org/2000/svg" width="512" height="512">
<path d="M0 0 C4.04934408 0.44601958 5.58966356 2.40432485 8.1875 5.4375 C8.98285156 6.35660156 9.77820313 7.27570312 10.59765625 8.22265625 C11.78681641 9.59744141 11.78681641 9.59744141 13 11 C14.37492108 12.45840774 15.74992137 13.91674081 17.125 15.375 C71.81660756 76.36616445 92.56100934 156.9501814 88.90039062 237.18322754 C88.44970237 245.2061703 87.42126466 253.09557213 86 261 C85.70198486 262.66240723 85.70198486 262.66240723 85.39794922 264.35839844 C73.07360334 330.69753663 39.79672515 393.91595336 -12 438 C-12.94617188 438.83402344 -13.89234375 439.66804688 -14.8671875 440.52734375 C-59.92138812 479.92919905 -117.75360747 504.16850842 -177 511 C-177.75142776 511.08692108 -178.50285553 511.17384216 -179.27705383 511.26339722 C-185.32429108 511.91713361 -191.30646103 512.1870803 -197.38671875 512.23828125 C-198.35421555 512.2480751 -199.32171234 512.25786896 -200.31852722 512.26795959 C-222.54254198 512.44639662 -244.10180028 512.11364935 -266 508 C-267.09747559 507.79632813 -268.19495117 507.59265625 -269.32568359 507.3828125 C-296.0527808 502.22599875 -321.66223296 493.10489483 -346 481 C-347.27689697 480.37375732 -347.27689697 480.37375732 -348.57958984 479.73486328 C-365.1950148 471.53609908 -380.39963125 461.37969918 -395 450 C-395.8353125 449.35804688 -396.670625 448.71609375 -397.53125 448.0546875 C-403.33881019 443.51523381 -408.75732877 438.64011597 -414.140625 433.61328125 C-417.02610611 430.97614073 -419.97952645 428.47982666 -423 426 C-422.45820788 421.97696347 -420.50280146 420.13368043 -417.6796875 417.32324219 C-416.76203613 416.40258972 -415.84438477 415.48193726 -414.89892578 414.53338623 C-413.89118332 413.53764683 -412.88320237 412.54214874 -411.875 411.546875 C-410.84691126 410.52184422 -409.81941254 409.49622134 -408.79248047 408.47003174 C-406.64157081 406.32372084 -404.48584785 404.18241111 -402.32617188 402.04492188 C-399.55163301 399.29873626 -396.78591163 396.54388067 -394.02328491 393.78571701 C-391.90319216 391.66977041 -389.78028276 389.55667055 -387.65631104 387.44461823 C-386.63512201 386.42914284 -385.61441082 385.41318671 -384.59417725 384.3967514 C-383.17217704 382.98158857 -381.74634356 381.57028062 -380.3203125 380.15917969 C-379.10239014 378.95149933 -379.10239014 378.95149933 -377.85986328 377.71942139 C-376 376 -376 376 -375 376 C-374.85304688 377.03898437 -374.70609375 378.07796875 -374.5546875 379.1484375 C-372.45637477 392.6947541 -368.18472406 401.55930437 -357 410 C-335.17895502 425.77408873 -311.61543891 437.7711788 -286 446 C-285.27603027 446.23702637 -284.55206055 446.47405273 -283.80615234 446.71826172 C-265.70785323 452.5944418 -242.44334636 460.09750846 -224 453 C-220.78951069 451.23878987 -217.89215262 449.2390859 -215 447 C-213.66666667 446 -212.33333333 445 -211 444 C-210.29875 444.54269531 -209.5975 445.08539063 -208.875 445.64453125 C-198.25490025 453.65289452 -189.2829056 457.1209067 -175.91186523 455.32714844 C-175.07469971 455.19856445 -174.23753418 455.06998047 -173.375 454.9375 C-172.47402588 454.8024707 -171.57305176 454.66744141 -170.64477539 454.52832031 C-133.1120076 448.51894198 -96.62452749 433.14163741 -66 410.6875 C-65.37174316 410.23262207 -64.74348633 409.77774414 -64.09619141 409.30908203 C-52.98650424 400.83920009 -48.94204546 389.44099886 -47 376 C-46.23816406 375.90203125 -45.47632813 375.8040625 -44.69140625 375.703125 C-30.07042836 373.58572995 -21.27074443 367.84379889 -12.265625 356.1796875 C-3.6546466 344.09462471 3.76411542 331.45519461 10 318 C10.33483398 317.29020996 10.66966797 316.58041992 11.01464844 315.84912109 C22.92859512 290.50541574 38.18649071 253.92091188 29.28515625 226.1640625 C27.77841144 222.45444763 25.9012214 219.67505926 23.26953125 216.68359375 C21.7880355 214.71890247 21.19136443 213.45903298 21 211 C22.07421875 209.24609375 22.07421875 209.24609375 23.6875 207.4375 C30.40452673 198.98654311 32.9214085 188.38985633 31.75 177.72363281 C26.66388553 140.77705697 12.58697643 103.44380447 -9 73 C-9.40879395 72.41379883 -9.81758789 71.82759766 -10.23876953 71.22363281 C-18.75506527 59.07330264 -27.1837539 51.4488072 -42.1875 48.6875 C-43.78944515 48.44328738 -45.39298532 48.20825916 -47 48 C-45.58460657 44.7760483 -43.88585072 42.64333208 -41.375 40.1875 C-40.42753906 39.24970703 -40.42753906 39.24970703 -39.4609375 38.29296875 C-38.15057308 37.0720419 -36.83161138 35.85837619 -35.4609375 34.70556641 C-30.71196887 30.69734477 -26.3537721 26.37880532 -22.015625 21.9375 C-21.0748259 20.97781059 -21.0748259 20.97781059 -20.11502075 19.99873352 C-17.4868549 17.31618881 -14.86035388 14.63243463 -12.25244141 11.93017578 C-10.33059797 9.9420782 -8.39350383 7.96998799 -6.453125 6 C-5.86452698 5.3824585 -5.27592896 4.76491699 -4.66949463 4.12866211 C-2.98925781 2.4375 -2.98925781 2.4375 0 0 Z " fill="#000000" transform="translate(423,0)"/>
<path d="M0 0 C1.81248734 -0.00856522 1.81248734 -0.00856522 3.66159058 -0.01730347 C4.97395691 -0.01842133 6.28632324 -0.01953918 7.63845825 -0.02069092 C9.0450656 -0.02532406 10.4516717 -0.03034939 11.85827637 -0.03573608 C15.66825361 -0.04881169 19.47821328 -0.0552952 23.28820944 -0.05974674 C25.67129977 -0.06268447 28.05438536 -0.06679051 30.4374733 -0.07125092 C37.90189397 -0.08491125 45.36630374 -0.09458584 52.83073604 -0.09845281 C61.43252208 -0.10293426 70.03414928 -0.12049232 78.63588703 -0.1494534 C85.29595381 -0.17109526 91.95597598 -0.18115837 98.61607754 -0.18249393 C102.58906305 -0.18353988 106.56189893 -0.18940338 110.53484726 -0.20731354 C114.27284412 -0.22383835 118.01057955 -0.22592852 121.74860001 -0.21717453 C123.76520952 -0.21604192 125.78181054 -0.22972391 127.79837036 -0.243927 C136.04716499 -0.20608504 142.53261225 0.37876729 149.24050903 5.57794189 C153.16624715 9.90821039 153.46880263 15.50846371 153.86550903 21.14044189 C153.56837079 25.23994812 152.7821954 29.13824579 151.86550903 33.14044189 C151.63130249 34.22349609 151.39709595 35.30655029 151.15579224 36.42242432 C144.61514909 65.81753002 133.62438562 94.61627899 115.86550903 119.14044189 C114.73629028 120.76466064 114.73629028 120.76466064 113.58425903 122.42169189 C112.80472947 123.51666873 112.02351859 124.61045086 111.24050903 125.70294189 C110.54699341 126.67360596 109.85347778 127.64427002 109.13894653 128.64434814 C105.85648555 132.24828727 102.73936753 133.84062454 97.93582153 134.60919189 C96.96386841 134.61950439 95.99191528 134.62981689 94.99050903 134.64044189 C93.54031372 134.68684814 93.54031372 134.68684814 92.06082153 134.73419189 C83.11976598 133.07277326 76.79406138 125.50850791 70.64163208 119.33648682 C69.64100514 118.34321248 68.63976178 117.35055879 67.63795471 116.35847473 C64.93690852 113.67952028 62.24545435 110.99112752 59.5563848 108.30015731 C57.30492294 106.04857525 55.04912517 103.80136111 52.79345065 101.55400068 C47.47115136 96.25088852 42.1570115 90.93969548 36.84768677 85.62359619 C31.38043431 80.14969621 25.89857103 74.6907436 20.40950364 69.23872679 C15.68524674 64.54519816 10.97074521 59.8420223 6.26377326 55.1311596 C3.4575312 52.32285445 0.64768476 49.51841611 -2.17183876 46.72344017 C-4.82198611 44.0956109 -7.45971527 41.45591069 -10.08856773 38.80678368 C-11.50972758 37.38060855 -12.94319181 35.96672736 -14.37704468 34.55331421 C-19.50575566 29.35703592 -23.90499174 24.76960085 -24.21793079 17.09382915 C-23.87141323 12.1589344 -22.33056152 8.84115517 -19.13449097 5.14044189 C-13.248877 0.66908954 -7.19161163 0.02045214 0 0 Z " fill="#000000" transform="translate(283.1344909667969,221.85955810546875)"/>
<path d="M0 0 C4.93823119 3.05922998 8.82382112 7.12178234 12.87868881 11.24473381 C13.84797522 12.21215206 14.81834973 13.17848112 15.78971481 14.14381218 C18.4020169 16.74621332 20.99860658 19.36377559 23.59221411 21.98479152 C26.31916146 24.7357224 29.05964521 27.47310883 31.79839706 30.21227837 C36.39109986 34.8095956 40.9742287 39.41627832 45.55105209 44.02940178 C50.83371314 49.35385052 56.12840864 54.6660776 61.43035209 59.97132152 C67.09209297 65.63666795 72.74616582 71.30961569 78.39737558 76.98546529 C80.01976932 78.61407072 81.64344296 80.24139118 83.26735687 81.86848068 C85.82166897 84.42871524 88.37068941 86.99410934 90.91578102 89.56350899 C92.29051675 90.94917122 93.67005735 92.33006135 95.0497551 93.710783 C106.77008062 105.5729834 106.77008062 105.5729834 107.03152084 114.43443108 C106.91645021 120.54202632 105.20209248 124.25453014 100.89480209 128.46958733 C73.9589951 151.36267285 38.15459706 165.36183348 3.71902084 171.68443108 C2.69421616 171.87521233 1.66941147 172.06599358 0.61355209 172.26255608 C-6.48856477 173.29768242 -14.26359169 174.12583611 -20.28097916 169.68443108 C-25.39745343 164.5679568 -27.40125662 161.08209202 -27.42142105 153.7141552 C-27.4271312 152.46643837 -27.43284134 151.21872154 -27.43872452 149.93319511 C-27.43996987 148.54786501 -27.44109497 147.1625348 -27.44211197 145.77720451 C-27.44674067 144.32015673 -27.4517654 142.86311015 -27.45715714 141.40606499 C-27.47027949 137.44515561 -27.47672595 133.48426318 -27.48116779 129.52333546 C-27.48409922 127.04797131 -27.4882042 124.5726118 -27.49267197 122.09724998 C-27.50634744 114.35036896 -27.51601344 106.60349851 -27.51987386 98.85660625 C-27.52435269 89.9180196 -27.54189222 80.97958601 -27.57087445 72.0410459 C-27.5925047 65.12967738 -27.60257888 58.21835186 -27.60391498 51.30694985 C-27.60496219 47.18025278 -27.6108519 43.05369959 -27.62873459 38.92703819 C-27.6452382 35.04298904 -27.64735976 31.15919155 -27.63859558 27.27511978 C-27.63782639 25.85255 -27.64215244 24.42996656 -27.65205383 23.00743103 C-27.75169868 7.79449367 -27.75169868 7.79449367 -21.90597916 0.87193108 C-14.64652247 -5.17761616 -7.94303124 -4.11065562 0 0 Z " fill="#000000" transform="translate(249.28097915649414,263.3155689239502)"/>
<path d="M0 0 C5.7468131 3.08625148 9.40190117 7.87547563 13.125 13.125 C13.55474121 13.73037598 13.98448242 14.33575195 14.42724609 14.95947266 C18.85669181 21.32324512 22.67348125 27.97970724 26.31347656 34.81982422 C27.00046266 36.10942416 27.69467465 37.39521162 28.39746094 38.67626953 C40.63683577 61.02357685 54.91810136 94.68212749 51.375 120.8125 C49.48219859 125.98390385 46.62224543 129.25283773 41.76768303 131.94798279 C36.36106565 133.90148592 30.43418356 133.36490046 24.75415039 133.33007812 C23.26857316 133.33550384 21.78300131 133.34262902 20.29743958 133.35131836 C16.27664897 133.36950305 12.25627042 133.36250406 8.23547292 133.34980202 C4.01914851 133.33964717 -0.19714155 133.34907476 -4.41346741 133.35534668 C-11.49405219 133.36261667 -18.5744699 133.3530533 -25.6550293 133.33398438 C-33.82864024 133.31222521 -42.00185189 133.31926253 -50.17545313 133.34129 C-57.20499512 133.35947258 -64.23441727 133.36198813 -71.2639752 133.35153532 C-75.45716202 133.34531498 -79.6501615 133.34442421 -83.84333611 133.35768127 C-87.78747067 133.36928063 -91.73109325 133.36114024 -95.67517281 133.33810425 C-97.11827369 133.33283847 -98.56141805 133.33429428 -100.00450134 133.34315491 C-109.28230523 133.39484625 -115.99239613 133.08874972 -123.0625 126.5625 C-125.86621768 121.62795688 -126.18107732 116.98321188 -124.875 111.5625 C-119.07641201 97.1702953 -101.75309612 84.72130303 -90.99609375 73.91015625 C-90.00478594 72.91347272 -89.01347901 71.91678832 -88.02217293 70.92010307 C-83.89857817 66.77497913 -79.77358815 62.63125204 -75.64489651 58.49120426 C-69.77363958 52.60367279 -63.91109814 46.70775383 -58.06014007 40.80004698 C-53.91574345 36.61685058 -49.76171186 32.44337668 -45.60051018 28.27689737 C-43.12703383 25.79978932 -40.65781516 23.3187777 -38.19891167 20.82719612 C-35.45953347 18.05191547 -32.70029996 15.29690045 -29.93920898 12.54321289 C-29.14152603 11.7291246 -28.34384308 10.91503632 -27.52198792 10.07627869 C-19.64997357 2.29002721 -11.30053464 -3.70189928 0 0 Z " fill="#000000" transform="translate(384.625,69.1875)"/>
<path d="M0 0 C6.75239121 7.38052063 6.13007996 15.92539524 6.10742188 25.39648438 C6.11477125 26.85265246 6.12336 28.30881473 6.13308716 29.76496887 C6.15521663 33.70090923 6.1582383 37.63663972 6.15633965 41.57263374 C6.15621959 44.86535975 6.16479779 48.15804187 6.17311716 51.4507556 C6.19231904 59.22094396 6.19524624 66.99102489 6.18847656 74.76123047 C6.18183251 82.76393138 6.20472191 90.76617176 6.24179029 98.76877928 C6.27251959 105.65396124 6.283844 112.53899527 6.27995348 119.4242444 C6.27788993 123.53030067 6.28330447 127.63599814 6.30784607 131.74198914 C6.33016553 135.60329762 6.32819311 139.46385812 6.30791855 143.32517052 C6.30451801 144.73764824 6.30955639 146.15017686 6.32390213 147.56258583 C6.39967782 155.57948565 6.21854037 161.77675485 0.6875 167.9375 C-4.47454928 172.73083148 -8.45387616 173.17179035 -15.25390625 173.10253906 C-20.21850709 172.83465351 -24.96517238 171.87952683 -29.8125 170.8125 C-30.85204834 170.58876709 -31.89159668 170.36503418 -32.96264648 170.13452148 C-53.18817941 165.64047464 -72.18049755 158.41547101 -90.53320312 148.86181641 C-92.08380587 148.05630296 -93.64278899 147.26696244 -95.203125 146.48046875 C-100.95991731 143.49003921 -106.32988832 140.01926686 -111.6875 136.375 C-112.36619141 135.91569092 -113.04488281 135.45638184 -113.74414062 134.9831543 C-119.76966098 130.8103169 -125.92621121 126.09636637 -128.3125 118.9375 C-128.77155895 112.05161582 -127.96941149 107.12111189 -123.47069645 101.73058128 C-118.10278854 95.82309614 -112.60699303 90.07357327 -106.97241211 84.42041016 C-106.08661972 83.52804657 -105.20082733 82.63568298 -104.28819275 81.71627808 C-101.39160677 78.800174 -98.49119519 75.88792272 -95.58984375 72.9765625 C-94.58298859 71.96565059 -93.57616369 70.95470853 -92.56936836 69.94373703 C-87.844462 65.19986565 -83.11720694 60.45835043 -78.38700384 55.71976054 C-72.95204057 50.27499572 -67.52549335 44.82201671 -62.10579866 39.36205447 C-57.89432168 35.12037517 -53.67515686 30.88644162 -49.45020682 26.6581825 C-46.9356117 24.14124589 -44.42437804 21.6211657 -41.921278 19.09279251 C-39.13299072 16.27679599 -36.32884569 13.47692338 -33.52319336 10.67822266 C-32.29714386 9.43295807 -32.29714386 9.43295807 -31.04632568 8.16253662 C-22.56256918 -0.24492124 -11.50717409 -7.16484424 0 0 Z " fill="#000000" transform="translate(196.3125,263.0625)"/>
<path d="M0 0 C0.14695313 0.95519531 0.29390625 1.91039062 0.4453125 2.89453125 C2.13303536 12.6231866 4.41267464 22.04495175 12 29 C10.62093591 31.94948157 8.98694507 34.44270836 7.0625 37.0625 C2.39550291 43.97193228 0.90874174 51.82132433 0 60 C-0.70382813 60.06316406 -1.40765625 60.12632812 -2.1328125 60.19140625 C-11.3929355 61.33985493 -22.67309325 64.63737186 -29 72 C-31.96404628 70.60789736 -34.52782057 68.96642353 -37.1875 67.0625 C-44.05499178 62.44664487 -50.83774716 60.74202299 -59 60 C-57.39922197 56.03040815 -54.63687748 53.36133843 -51.64819336 50.40527344 C-51.10330765 49.85848938 -50.55842194 49.31170532 -49.99702454 48.74835205 C-48.19947659 46.94710707 -46.39484381 45.15314984 -44.58984375 43.359375 C-43.33919947 42.10992288 -42.08892468 40.86010082 -40.83900452 39.60992432 C-38.22184272 36.99432535 -35.60135823 34.3821177 -32.97827148 31.77246094 C-29.60799307 28.41921598 -26.24437915 25.05938159 -22.88298702 21.69723129 C-20.30374985 19.1182653 -17.72192057 16.54190798 -15.13919258 13.96643829 C-13.89737245 12.72781003 -12.6561656 11.48856659 -11.41557121 10.24871063 C-9.68702338 8.5223184 -7.95523114 6.79925211 -6.22241211 5.07714844 C-5.70550812 4.55979126 -5.18860413 4.04243408 -4.65603638 3.50939941 C-1.11447721 0 -1.11447721 0 0 0 Z " fill="#000000" transform="translate(242,182)"/>
</svg>
